<svg xmlns="http://www.w3.org/2000/svg" version="1.1" xmlns:xlink="http://www.w3.org/1999/xlink" xmlns:svgjs="http://svgjs.dev/svgjs" width="1000" height="333" viewBox="0 0 1000 333"><g transform="matrix(1,0,0,1,-0.6060606060606233,-0.014955504576875)"><svg viewBox="0 0 396 132" data-background-color="#ffffff" preserveAspectRatio="xMidYMid meet" height="333" width="1000" xmlns="http://www.w3.org/2000/svg" xmlns:xlink="http://www.w3.org/1999/xlink"><g id="tight-bounds" transform="matrix(1,0,0,1,0.2400000000000091,0.00592832027942336)"><svg viewBox="0 0 395.52 131.98814337160002" height="131.98814337160002" width="395.52"><g><svg viewBox="0 0 395.52 131.98814337160002" height="131.98814337160002" width="395.52"><g><svg viewBox="0 0 395.52 131.98814337160002" height="131.98814337160002" width="395.52"><g><svg viewBox="0 0 552.4721891930022 184.36432674966554" height="131.98814337160002" width="395.52"><g transform="matrix(1,0,0,1,156.95218919300225,25.480163827196904)"><svg viewBox="0 0 395.52 133.40399909527173" height="133.40399909527173" width="395.52"><g id="textblocktransform"><svg viewBox="0 0 395.52 133.40399909527173" height="133.40399909527173" width="395.52" id="textblock"><g><svg viewBox="0 0 395.52 81.60945912742615" height="81.60945912742615" width="395.52"><g transform="matrix(1,0,0,1,0,0)"><svg width="395.52" viewBox="2.1500000953674316 -36.45000076293945 228.98001098632812 46.72105407714844" height="81.60945912742615" data-palette-color="#111111"><path d="M35.05-25.7L35.05-25.7Q38.6-25.7 40.43-23.93 42.25-22.15 42.25-18.7L42.25-18.7 42.25 0 31.8 0 31.8-15.35Q31.8-16.2 31.45-16.53 31.1-16.85 30.15-16.85L30.15-16.85Q29.7-16.85 29.23-16.8 28.75-16.75 28.08-16.55 27.4-16.35 26.35-15.9L26.35-15.9 25.8-21.05Q28-23.4 30.13-24.55 32.25-25.7 35.05-25.7ZM2.15-25L10.35-25 11.6-19.9 12.6-19.3 12.6 0 2.15 0 2.15-25ZM20.2-25.7L20.2-25.7Q23.65-25.7 25.45-23.93 27.25-22.15 27.25-18.7L27.25-18.7 27.25 0 17.15 0 17.15-15.35Q17.15-16.2 16.75-16.53 16.35-16.85 15.45-16.85L15.45-16.85Q15-16.85 14.5-16.8 14-16.75 13.3-16.55 12.6-16.35 11.5-15.9L11.5-15.9 10.95-21.05Q13.15-23.4 15.25-24.55 17.35-25.7 20.2-25.7ZM63.3-25L74.45-25 66.5-0.7Q65.85 1.35 64.62 3.55 63.4 5.75 61.42 7.48 59.45 9.2 56.6 9.93 53.75 10.65 49.85 9.85L49.85 9.85 49.15 4.2Q52.25 3.55 54.07 2.48 55.9 1.4 56.85-0.7L56.85-0.7 58.7-4.7Q59.25-5.95 59.67-7.9 60.1-9.85 60.35-11.2L60.35-11.2 63.3-25ZM44.1-25L55.25-25 58.2-11.2Q58.4-10.05 58.55-8.85 58.7-7.65 58.85-6.5L58.85-6.5 60.35-6.5 57.1 0 54.8 0Q53.6 0 52.72-0.68 51.85-1.35 51.5-2.45L51.5-2.45 44.1-25ZM77-34.5L87.75-34.5 87.75 0 77 0 77-34.5ZM100.54-34.5L111.39-34.5 111.39 0 100.54 0 100.54-34.5ZM90.89-34.5L121.04-34.5 121.04-26.4 90.89-26.4 90.89-34.5ZM134.39-36.2L134.39-36.2Q135.39-36.2 137.06-36.13 138.74-36.05 140.52-35.9 142.29-35.75 143.54-35.5L143.54-35.5 142.54-29.2 138.14-29.2Q136.74-29.2 136.24-28.63 135.74-28.05 135.74-26.6L135.74-26.6 135.74 0 125.19 0 125.19-28.05Q125.19-30.4 126.06-32.25 126.94-34.1 128.97-35.15 130.99-36.2 134.39-36.2ZM125.24-25L141.69-25 141.69-18.7 120.99-18.7 120.99-24.75 125.24-25ZM144.29-25L154.74-25 154.74 0 144.29 0 144.29-25ZM147.29-36.45L151.74-36.45Q154.79-36.45 154.79-33.35L154.79-33.35 154.79-30.8Q154.79-27.7 151.74-27.7L151.74-27.7 147.29-27.7Q144.24-27.7 144.24-30.8L144.24-30.8 144.24-33.35Q144.24-36.45 147.29-36.45L147.29-36.45ZM159.28-35L169.74-35 169.74-9.1Q169.74-8.15 170.36-7.73 170.99-7.3 172.24-7.3L172.24-7.3 173.94-7.3 175.09-0.6Q174.34-0.15 172.96 0.13 171.59 0.4 170.16 0.55 168.74 0.7 167.74 0.7L167.74 0.7Q163.78 0.7 161.53-1.15 159.28-3 159.28-6.3L159.28-6.3 159.28-35ZM190.43-25.7L190.43-25.7Q197.48-25.7 200.43-23.45 203.38-21.2 203.43-16.8L203.43-16.8Q203.48-13.3 201.36-11.75 199.23-10.2 193.73-10.2L193.73-10.2 180.28-10.2 180.28-15.15 190.78-15.15Q192.48-15.15 192.93-15.48 193.38-15.8 193.38-17.05L193.38-17.05Q193.38-18.25 192.78-18.6 192.18-18.95 190.73-18.95L190.73-18.95Q189.28-19 188.53-18.65 187.78-18.3 187.51-17.13 187.23-15.95 187.23-13.45L187.23-13.45Q187.23-11.15 187.56-9.85 187.88-8.55 188.83-8 189.78-7.45 191.63-7.45L191.63-7.45Q193.13-7.45 195.86-7.55 198.58-7.65 201.78-8L201.78-8 202.73-1.7Q200.98-0.8 198.98-0.3 196.98 0.2 194.86 0.4 192.73 0.6 190.48 0.6L190.48 0.6Q185.28 0.6 182.13-0.85 178.98-2.3 177.61-5.18 176.23-8.05 176.23-12.3L176.23-12.3Q176.23-17.25 177.63-20.18 179.03-23.1 182.16-24.4 185.28-25.7 190.43-25.7ZM217.28-25.7L217.28-25.7Q219.28-25.7 221.66-25.55 224.03-25.4 226.28-25.18 228.53-24.95 230.08-24.6L230.08-24.6 229.43-18.5Q226.93-18.5 224.41-18.5 221.88-18.5 219.58-18.5L219.58-18.5Q217.93-18.5 217.13-18.48 216.33-18.45 216.08-18.35 215.83-18.25 215.83-17.9L215.83-17.9Q215.83-17.5 216.41-17.35 216.98-17.2 218.78-16.7L218.78-16.7 224.53-15.25Q227.88-14.3 229.51-12.63 231.13-10.95 231.13-7.7L231.13-7.7Q231.13-4.55 229.93-2.75 228.73-0.95 226.06-0.2 223.38 0.55 219.03 0.55L219.03 0.55Q217.23 0.55 213.71 0.38 210.18 0.2 206.03-0.5L206.03-0.5 206.68-6.6Q207.33-6.6 208.76-6.6 210.18-6.6 212.01-6.6 213.83-6.6 215.58-6.6L215.58-6.6Q217.98-6.6 219.13-6.63 220.28-6.65 220.63-6.83 220.98-7 220.98-7.35L220.98-7.35Q220.98-7.8 220.33-7.98 219.68-8.15 217.73-8.7L217.73-8.7 212.23-10.2Q209.48-11 208.08-12.18 206.68-13.35 206.18-14.9 205.68-16.45 205.68-18.4L205.68-18.4Q205.68-20.7 206.76-22.33 207.83-23.95 210.36-24.83 212.88-25.7 217.28-25.7Z" opacity="1" transform="matrix(1,0,0,1,0,0)" fill="#111111" class="undefined-text-0" data-fill-palette-color="primary" id="text-0"></path></svg></g></svg></g><g transform="matrix(1,0,0,1,163.310208,100.8754938003924)"><svg viewBox="0 0 232.209792 32.52850529487934" height="32.52850529487934" width="232.209792"><g transform="matrix(1,0,0,1,0,0)"><svg width="232.209792" viewBox="3.4000000953674316 -36 339.77001953125 47.599998474121094" height="32.52850529487934" data-palette-color="#111111"><path d="M26.25 0L3.4 0 3.4-35 26.25-35 26.25-29.85 9.8-29.85 9.8-20.25 24.75-20.25 24.75-15.25 9.8-15.25 9.8-5.15 26.25-5.15 26.25 0ZM40.7 0.6L40.7 0.6Q37.5 0.6 35.45-0.43 33.4-1.45 32.4-3.15 31.4-4.85 31.4-6.9L31.4-6.9Q31.4-10.35 34.1-12.5 36.8-14.65 42.2-14.65L42.2-14.65 48.5-14.65 48.5-15.25Q48.5-17.8 47.05-19 45.6-20.2 43.45-20.2L43.45-20.2Q41.5-20.2 40.05-19.28 38.6-18.35 38.25-16.55L38.25-16.55 32-16.55Q32.25-19.25 33.82-21.25 35.4-23.25 37.9-24.33 40.4-25.4 43.5-25.4L43.5-25.4Q48.8-25.4 51.85-22.75 54.9-20.1 54.9-15.25L54.9-15.25 54.9 0 49.45 0 48.85-4Q47.75-2 45.77-0.7 43.8 0.6 40.7 0.6ZM42.15-4.4L42.15-4.4Q44.9-4.4 46.42-6.2 47.95-8 48.35-10.65L48.35-10.65 42.9-10.65Q40.35-10.65 39.25-9.73 38.15-8.8 38.15-7.45L38.15-7.45Q38.15-6 39.25-5.2 40.35-4.4 42.15-4.4ZM71.25 0.6L71.25 0.6Q67.95 0.6 65.45-0.48 62.95-1.55 61.45-3.45 59.95-5.35 59.65-7.85L59.65-7.85 66.09-7.85Q66.4-6.4 67.72-5.38 69.05-4.35 71.15-4.35L71.15-4.35Q73.25-4.35 74.22-5.2 75.2-6.05 75.2-7.15L75.2-7.15Q75.2-8.75 73.8-9.33 72.4-9.9 69.9-10.45L69.9-10.45Q68.3-10.8 66.65-11.3 65-11.8 63.62-12.58 62.25-13.35 61.4-14.58 60.55-15.8 60.55-17.6L60.55-17.6Q60.55-20.9 63.17-23.15 65.8-25.4 70.55-25.4L70.55-25.4Q74.95-25.4 77.57-23.35 80.2-21.3 80.7-17.7L80.7-17.7 74.65-17.7Q74.09-20.45 70.5-20.45L70.5-20.45Q68.7-20.45 67.72-19.75 66.75-19.05 66.75-18L66.75-18Q66.75-16.9 68.2-16.25 69.65-15.6 72.05-15.05L72.05-15.05Q74.65-14.45 76.82-13.73 79-13 80.3-11.58 81.59-10.15 81.59-7.5L81.59-7.5Q81.65-5.2 80.4-3.35 79.15-1.5 76.8-0.45 74.45 0.6 71.25 0.6ZM95.84 11L89.04 11 94.79-1.65 93.29-1.65 83.64-24.8 90.59-24.8 97.54-7.35 104.79-24.8 111.59-24.8 95.84 11ZM142.39 0L135.99 0 135.99-29.85 125.79-29.85 125.79-35 152.64-35 152.64-29.85 142.39-29.85 142.39 0ZM161.54 0.6L161.54 0.6Q158.34 0.6 156.29-0.43 154.24-1.45 153.24-3.15 152.24-4.85 152.24-6.9L152.24-6.9Q152.24-10.35 154.94-12.5 157.64-14.65 163.04-14.65L163.04-14.65 169.34-14.65 169.34-15.25Q169.34-17.8 167.89-19 166.44-20.2 164.29-20.2L164.29-20.2Q162.34-20.2 160.89-19.28 159.44-18.35 159.09-16.55L159.09-16.55 152.84-16.55Q153.09-19.25 154.66-21.25 156.24-23.25 158.74-24.33 161.24-25.4 164.34-25.4L164.34-25.4Q169.64-25.4 172.69-22.75 175.74-20.1 175.74-15.25L175.74-15.25 175.74 0 170.29 0 169.69-4Q168.59-2 166.61-0.7 164.64 0.6 161.54 0.6ZM162.99-4.4L162.99-4.4Q165.74-4.4 167.26-6.2 168.79-8 169.19-10.65L169.19-10.65 163.74-10.65Q161.19-10.65 160.09-9.73 158.99-8.8 158.99-7.45L158.99-7.45Q158.99-6 160.09-5.2 161.19-4.4 162.99-4.4ZM186.33 0L179.48 0 188.48-12.4 179.48-24.8 186.33-24.8 192.63-16 198.88-24.8 205.78-24.8 196.73-12.4 205.78 0 198.88 0 192.63-8.8 186.33 0ZM228.33 0L221.93 0 221.93-35 244.53-35 244.53-29.85 228.33-29.85 228.33-20.05 241.43-20.05 241.43-15 228.33-15 228.33 0ZM252.78-28.65L252.78-28.65Q251.03-28.65 249.9-29.7 248.78-30.75 248.78-32.35L248.78-32.35Q248.78-33.95 249.9-34.98 251.03-36 252.78-36L252.78-36Q254.53-36 255.65-34.98 256.78-33.95 256.78-32.35L256.78-32.35Q256.78-30.75 255.65-29.7 254.53-28.65 252.78-28.65ZM255.98 0L249.58 0 249.58-24.8 255.98-24.8 255.98 0ZM269.07 0L262.67 0 262.67-36 269.07-36 269.07 0ZM279.07-28.65L279.07-28.65Q277.32-28.65 276.2-29.7 275.07-30.75 275.07-32.35L275.07-32.35Q275.07-33.95 276.2-34.98 277.32-36 279.07-36L279.07-36Q280.82-36 281.95-34.98 283.07-33.95 283.07-32.35L283.07-32.35Q283.07-30.75 281.95-29.7 280.82-28.65 279.07-28.65ZM282.27 0L275.87 0 275.87-24.8 282.27-24.8 282.27 0ZM295.37 0L288.97 0 288.97-24.8 294.62-24.8 295.12-20.6Q296.27-22.8 298.44-24.1 300.62-25.4 303.57-25.4L303.57-25.4Q308.17-25.4 310.72-22.5 313.27-19.6 313.27-14L313.27-14 313.27 0 306.87 0 306.87-13.4Q306.87-16.6 305.57-18.3 304.27-20 301.52-20L301.52-20Q298.82-20 297.09-18.1 295.37-16.2 295.37-12.8L295.37-12.8 295.37 0ZM329.87-7.4L329.87-7.4Q328.07-7.4 326.52-7.8L326.52-7.8 324.67-5.95Q325.52-5.5 326.97-5.2 328.42-4.9 331.67-4.6L331.67-4.6Q336.62-4.15 338.87-2.25 341.12-0.35 341.12 3L341.12 3Q341.12 5.2 339.92 7.18 338.72 9.15 336.22 10.38 333.72 11.6 329.82 11.6L329.82 11.6Q324.52 11.6 321.27 9.63 318.02 7.65 318.02 3.7L318.02 3.7Q318.02 0.35 321.27-2.1L321.27-2.1Q320.27-2.55 319.54-3.05 318.82-3.55 318.27-4.1L318.27-4.1 318.27-5.25 322.62-9.85Q319.72-12.4 319.72-16.4L319.72-16.4Q319.72-18.9 320.94-20.95 322.17-23 324.42-24.2 326.67-25.4 329.87-25.4L329.87-25.4Q331.97-25.4 333.77-24.8L333.77-24.8 343.17-24.8 343.17-20.9 338.92-20.6Q339.92-18.7 339.92-16.4L339.92-16.4Q339.92-13.9 338.72-11.85 337.52-9.8 335.24-8.6 332.97-7.4 329.87-7.4ZM329.87-12.3L329.87-12.3Q331.82-12.3 333.09-13.35 334.37-14.4 334.37-16.35L334.37-16.35Q334.37-18.3 333.09-19.35 331.82-20.4 329.87-20.4L329.87-20.4Q327.82-20.4 326.57-19.35 325.32-18.3 325.32-16.35L325.32-16.35Q325.32-14.4 326.57-13.35 327.82-12.3 329.87-12.3ZM323.87 3.05L323.87 3.05Q323.87 4.9 325.59 5.83 327.32 6.75 329.82 6.75L329.82 6.75Q332.22 6.75 333.72 5.78 335.22 4.8 335.22 3.15L335.22 3.15Q335.22 1.8 334.24 0.9 333.27 0 330.37-0.2L330.37-0.2Q328.32-0.35 326.57-0.65L326.57-0.65Q325.12 0.15 324.49 1.1 323.87 2.05 323.87 3.05Z" opacity="1" transform="matrix(1,0,0,1,0,0)" fill="#111111" class="undefined-text-1" data-fill-palette-color="secondary" id="text-1"></path></svg></g></svg></g></svg></g></svg></g><g><svg viewBox="0 0 137.686154520036 184.36432674966554" height="184.36432674966554" width="137.686154520036"><g><svg xmlns="http://www.w3.org/2000/svg" xmlns:xlink="http://www.w3.org/1999/xlink" version="1.1" x="0" y="0" viewBox="4.925998687744141 0.627764105796814 17.044002532958984 22.822237014770508" enable-background="new 0 0 24 24" xml:space="preserve" height="184.36432674966554" width="137.686154520036" class="icon-icon-0" data-fill-palette-color="accent" id="icon-0"><path d="M13.44 23.448c0.002 0 0.003 0.002 0.006 0.002h0.001 0.001c0.003 0 0.004-0.002 0.006-0.002 0.09 0 0.181-0.01 0.272-0.031 6.366-1.516 8.176-6.528 8.244-9.001V5.228c0-0.564-0.391-1.053-0.94-1.177-4.74-1.071-6.661-3.009-6.703-3.052-0.014-0.014-0.031-0.02-0.046-0.033-0.004-0.004-0.007-0.011-0.012-0.016-0.025-0.024-0.059-0.032-0.086-0.054C14.087 0.82 13.99 0.751 13.88 0.708c-0.034-0.013-0.069-0.014-0.104-0.024-0.115-0.033-0.229-0.059-0.347-0.056-0.038 0-0.074 0.013-0.112 0.018-0.113 0.012-0.223 0.029-0.33 0.073-0.054 0.022-0.099 0.061-0.149 0.091-0.069 0.042-0.146 0.07-0.208 0.127-0.012 0.01-0.016 0.025-0.026 0.036-0.011 0.01-0.025 0.014-0.034 0.024-0.019 0.02-1.934 1.976-6.704 3.053-0.549 0.124-0.94 0.613-0.94 1.177v9.222c0.068 2.438 1.878 7.451 8.244 8.967C13.26 23.438 13.351 23.448 13.44 23.448zM7.337 14.416V6.174c3.147-0.837 5.091-2.012 6.11-2.774 1.02 0.762 2.963 1.938 6.11 2.774v8.208c-0.001 0.052-0.222 5.045-6.11 6.605C7.618 19.443 7.346 14.586 7.337 14.416z" fill="#010c80" data-fill-palette-color="accent"></path><path d="M17.285 10.639c0.472-0.471 0.472-1.235 0-1.707-0.471-0.471-1.234-0.471-1.706 0l-3.644 3.643-0.62-0.62c-0.471-0.471-1.235-0.471-1.706 0-0.472 0.471-0.472 1.235 0 1.707l1.473 1.474c0.227 0.227 0.533 0.354 0.854 0.354 0.32 0 0.627-0.127 0.853-0.354L17.285 10.639z" fill="#010c80" data-fill-palette-color="accent"></path></svg></g></svg></g></svg></g></svg></g></svg></g><defs></defs></svg><rect width="395.52" height="131.98814337160002" fill="none" stroke="none" visibility="hidden"></rect></g></svg></g></svg>